<?xml version="1.0" encoding="us-ascii" standalone="no"?><svg xmlns="http://www.w3.org/2000/svg" xmlns:xlink="http://www.w3.org/1999/xlink" contentStyleType="text/css" height="1373px" preserveAspectRatio="none" style="width:844px;height:1373px;background:#FFFFFF;" version="1.1" viewBox="0 0 844 1373" width="844px" zoomAndPan="magnify"><defs/><g><rect fill="#F1F1F1" height="36.2969" rx="12.5" ry="12.5" style="stroke:#181818;stroke-width:1.5;" width="124" x="10" y="667.4141"/><text fill="#000000" font-family="sans-serif" font-size="14" lengthAdjust="spacing" textLength="104" x="20" y="690.4092">Transformation</text><rect fill="#F1F1F1" height="36.2969" rx="12.5" ry="12.5" style="stroke:#181818;stroke-width:1.5;" width="93" x="184" y="188.8906"/><text fill="#000000" font-family="sans-serif" font-size="14" lengthAdjust="spacing" textLength="73" x="194" y="211.8857">Problemas</text><rect fill="#F1F1F1" height="36.2969" rx="12.5" ry="12.5" style="stroke:#181818;stroke-width:1.5;" width="112" x="327" y="20"/><text fill="#000000" font-family="sans-serif" font-size="14" lengthAdjust="spacing" textLength="92" x="337" y="42.9951">Hot database</text><path d="M277,207.0391 L287,207.0391 C302,207.0391 302,38.1484 317,38.1484 L327,38.1484 " fill="none" style="stroke:#181818;stroke-width:1.0;"/><rect fill="#F1F1F1" height="36.2969" rx="12.5" ry="12.5" style="stroke:#181818;stroke-width:1.5;" width="97" x="327" y="188.8906"/><text fill="#000000" font-family="sans-serif" font-size="14" lengthAdjust="spacing" textLength="77" x="337" y="211.8857">Frequencia</text><rect fill="#F1F1F1" height="36.2969" rx="12.5" ry="12.5" style="stroke:#181818;stroke-width:1.5;" width="139" x="474" y="76.2969"/><text fill="#000000" font-family="sans-serif" font-size="14" lengthAdjust="spacing" textLength="119" x="484" y="99.292">Record by record</text><path d="M424,207.0391 L434,207.0391 C449,207.0391 449,94.4453 464,94.4453 L474,94.4453 " fill="none" style="stroke:#181818;stroke-width:1.0;"/><rect fill="#F1F1F1" height="36.2969" rx="12.5" ry="12.5" style="stroke:#181818;stroke-width:1.5;" width="95" x="474" y="132.5938"/><text fill="#000000" font-family="sans-serif" font-size="14" lengthAdjust="spacing" textLength="75" x="484" y="155.5889">Windowing</text><path d="M424,207.0391 L434,207.0391 C449,207.0391 449,150.7422 464,150.7422 L474,150.7422 " fill="none" style="stroke:#181818;stroke-width:1.0;"/><rect fill="#F1F1F1" height="36.2969" rx="12.5" ry="12.5" style="stroke:#181818;stroke-width:1.5;" width="118" x="474" y="188.8906"/><text fill="#000000" font-family="sans-serif" font-size="14" lengthAdjust="spacing" textLength="98" x="484" y="211.8857">Auth-N Auth-Z</text><path d="M424,207.0391 L434,207.0391 C449,207.0391 449,207.0391 464,207.0391 L474,207.0391 " fill="none" style="stroke:#181818;stroke-width:1.0;"/><rect fill="#F1F1F1" height="36.2969" rx="12.5" ry="12.5" style="stroke:#181818;stroke-width:1.5;" width="177" x="474" y="245.1875"/><text fill="#000000" font-family="sans-serif" font-size="14" lengthAdjust="spacing" textLength="157" x="484" y="268.1826">Diversidade de Vendor</text><path d="M424,207.0391 L434,207.0391 C449,207.0391 449,263.3359 464,263.3359 L474,263.3359 " fill="none" style="stroke:#181818;stroke-width:1.0;"/><rect fill="#F1F1F1" height="36.2969" rx="12.5" ry="12.5" style="stroke:#181818;stroke-width:1.5;" width="108" x="474" y="301.4844"/><text fill="#000000" font-family="sans-serif" font-size="14" lengthAdjust="spacing" textLength="88" x="484" y="324.4795">Datasources</text><path d="M424,207.0391 L434,207.0391 C449,207.0391 449,319.6328 464,319.6328 L474,319.6328 " fill="none" style="stroke:#181818;stroke-width:1.0;"/><path d="M277,207.0391 L287,207.0391 C302,207.0391 302,207.0391 317,207.0391 L327,207.0391 " fill="none" style="stroke:#181818;stroke-width:1.0;"/><rect fill="#F1F1F1" height="36.2969" rx="12.5" ry="12.5" style="stroke:#181818;stroke-width:1.5;" width="268" x="327" y="357.7813"/><text fill="#000000" font-family="sans-serif" font-size="14" lengthAdjust="spacing" textLength="248" x="337" y="380.7764">Modelo de entrada na base anal&#237;tica</text><path d="M277,207.0391 L287,207.0391 C302,207.0391 302,375.9297 317,375.9297 L327,375.9297 " fill="none" style="stroke:#181818;stroke-width:1.0;"/><path d="M134,685.5625 L144,685.5625 C159,685.5625 159,207.0391 174,207.0391 L184,207.0391 " fill="none" style="stroke:#181818;stroke-width:1.0;"/><rect fill="#F1F1F1" height="36.2969" rx="12.5" ry="12.5" style="stroke:#181818;stroke-width:1.5;" width="118" x="184" y="723.7109"/><text fill="#000000" font-family="sans-serif" font-size="14" lengthAdjust="spacing" textLength="98" x="194" y="746.7061">Tasks (Ready)</text><rect fill="#F1F1F1" height="36.2969" rx="12.5" ry="12.5" style="stroke:#181818;stroke-width:1.5;" width="107" x="352" y="414.0781"/><text fill="#000000" font-family="sans-serif" font-size="14" lengthAdjust="spacing" textLength="87" x="362" y="437.0732">Tasks (Cript)</text><rect fill="#F1F1F1" height="36.2969" rx="12.5" ry="12.5" style="stroke:#181818;stroke-width:1.5;" width="123" x="509" y="414.0781"/><text fill="#000000" font-family="sans-serif" font-size="14" lengthAdjust="spacing" textLength="103" x="519" y="437.0732">De/Criptografia</text><path d="M459,432.2266 L469,432.2266 C484,432.2266 484,432.2266 499,432.2266 L509,432.2266 " fill="none" style="stroke:#181818;stroke-width:1.0;"/><path d="M302,741.8594 L312,741.8594 C327,741.8594 327,432.2266 342,432.2266 L352,432.2266 " fill="none" style="stroke:#181818;stroke-width:1.0;"/><rect fill="#F1F1F1" height="36.2969" rx="12.5" ry="12.5" style="stroke:#181818;stroke-width:1.5;" width="205" x="352" y="554.8203"/><text fill="#000000" font-family="sans-serif" font-size="14" lengthAdjust="spacing" textLength="185" x="362" y="577.8154">Tasks (Cleansing/Limpeza)</text><rect fill="#F1F1F1" height="36.2969" rx="12.5" ry="12.5" style="stroke:#181818;stroke-width:1.5;" width="65" x="607" y="470.375"/><text fill="#000000" font-family="sans-serif" font-size="14" lengthAdjust="spacing" textLength="45" x="617" y="493.3701">Outlier</text><path d="M557,572.9688 L567,572.9688 C582,572.9688 582,488.5234 597,488.5234 L607,488.5234 " fill="none" style="stroke:#181818;stroke-width:1.0;"/><rect fill="#F1F1F1" height="36.2969" rx="12.5" ry="12.5" style="stroke:#181818;stroke-width:1.5;" width="94" x="607" y="526.6719"/><text fill="#000000" font-family="sans-serif" font-size="14" lengthAdjust="spacing" textLength="74" x="617" y="549.667">Enconding</text><path d="M557,572.9688 L567,572.9688 C582,572.9688 582,544.8203 597,544.8203 L607,544.8203 " fill="none" style="stroke:#181818;stroke-width:1.0;"/><rect fill="#F1F1F1" height="36.2969" rx="12.5" ry="12.5" style="stroke:#181818;stroke-width:1.5;" width="114" x="607" y="582.9688"/><text fill="#000000" font-family="sans-serif" font-size="14" lengthAdjust="spacing" textLength="94" x="617" y="605.9639">Deduplica&#231;&#227;o</text><path d="M557,572.9688 L567,572.9688 C582,572.9688 582,601.1172 597,601.1172 L607,601.1172 " fill="none" style="stroke:#181818;stroke-width:1.0;"/><rect fill="#F1F1F1" height="36.2969" rx="12.5" ry="12.5" style="stroke:#181818;stroke-width:1.5;" width="108" x="607" y="639.2656"/><text fill="#000000" font-family="sans-serif" font-size="14" lengthAdjust="spacing" textLength="88" x="617" y="662.2607">Dados Nulos</text><path d="M557,572.9688 L567,572.9688 C582,572.9688 582,657.4141 597,657.4141 L607,657.4141 " fill="none" style="stroke:#181818;stroke-width:1.0;"/><path d="M302,741.8594 L312,741.8594 C327,741.8594 327,572.9688 342,572.9688 L352,572.9688 " fill="none" style="stroke:#181818;stroke-width:1.0;"/><rect fill="#F1F1F1" height="36.2969" rx="12.5" ry="12.5" style="stroke:#181818;stroke-width:1.5;" width="186" x="352" y="695.5625"/><text fill="#000000" font-family="sans-serif" font-size="14" lengthAdjust="spacing" textLength="166" x="362" y="718.5576">Tasks (Typing/Tipagem)</text><rect fill="#F1F1F1" height="36.2969" rx="12.5" ry="12.5" style="stroke:#181818;stroke-width:1.5;" width="160" x="588" y="695.5625"/><text fill="#000000" font-family="sans-serif" font-size="14" lengthAdjust="spacing" textLength="140" x="598" y="718.5576">Casting (Convers&#227;o)</text><path d="M538,713.7109 L548,713.7109 C563,713.7109 563,713.7109 578,713.7109 L588,713.7109 " fill="none" style="stroke:#181818;stroke-width:1.0;"/><path d="M302,741.8594 L312,741.8594 C327,741.8594 327,713.7109 342,713.7109 L352,713.7109 " fill="none" style="stroke:#181818;stroke-width:1.0;"/><rect fill="#F1F1F1" height="36.2969" rx="12.5" ry="12.5" style="stroke:#181818;stroke-width:1.5;" width="193" x="352" y="892.6016"/><text fill="#000000" font-family="sans-serif" font-size="14" lengthAdjust="spacing" textLength="173" x="362" y="915.5967">Tasks (Mapping/De Para)</text><rect fill="#F1F1F1" height="36.2969" rx="12.5" ry="12.5" style="stroke:#181818;stroke-width:1.5;" width="164" x="595" y="751.8594"/><text fill="#000000" font-family="sans-serif" font-size="14" lengthAdjust="spacing" textLength="144" x="605" y="774.8545">Graus (Temperatura)</text><path d="M545,910.75 L555,910.75 C570,910.75 570,770.0078 585,770.0078 L595,770.0078 " fill="none" style="stroke:#181818;stroke-width:1.0;"/><rect fill="#F1F1F1" height="36.2969" rx="12.5" ry="12.5" style="stroke:#181818;stroke-width:1.5;" width="58" x="595" y="808.1563"/><text fill="#000000" font-family="sans-serif" font-size="14" lengthAdjust="spacing" textLength="34" x="605" y="831.1514">Sexo</text><path d="M545,910.75 L555,910.75 C570,910.75 570,826.3047 585,826.3047 L595,826.3047 " fill="none" style="stroke:#181818;stroke-width:1.0;"/><rect fill="#F1F1F1" height="36.2969" rx="12.5" ry="12.5" style="stroke:#181818;stroke-width:1.5;" width="67" x="595" y="864.4531"/><text fill="#000000" font-family="sans-serif" font-size="14" lengthAdjust="spacing" textLength="47" x="605" y="887.4482">Moeda</text><path d="M545,910.75 L555,910.75 C570,910.75 570,882.6016 585,882.6016 L595,882.6016 " fill="none" style="stroke:#181818;stroke-width:1.0;"/><rect fill="#F1F1F1" height="36.2969" rx="12.5" ry="12.5" style="stroke:#181818;stroke-width:1.5;" width="154" x="595" y="920.75"/><text fill="#000000" font-family="sans-serif" font-size="14" lengthAdjust="spacing" textLength="134" x="605" y="943.7451">Unidade de medida</text><path d="M545,910.75 L555,910.75 C570,910.75 570,938.8984 585,938.8984 L595,938.8984 " fill="none" style="stroke:#181818;stroke-width:1.0;"/><rect fill="#F1F1F1" height="36.2969" rx="12.5" ry="12.5" style="stroke:#181818;stroke-width:1.5;" width="172" x="595" y="977.0469"/><text fill="#000000" font-family="sans-serif" font-size="14" lengthAdjust="spacing" textLength="152" x="605" y="1000.042">Unidade de federa&#231;&#227;o</text><path d="M545,910.75 L555,910.75 C570,910.75 570,995.1953 585,995.1953 L595,995.1953 " fill="none" style="stroke:#181818;stroke-width:1.0;"/><rect fill="#F1F1F1" height="36.2969" rx="12.5" ry="12.5" style="stroke:#181818;stroke-width:1.5;" width="89" x="595" y="1033.3438"/><text fill="#000000" font-family="sans-serif" font-size="14" lengthAdjust="spacing" textLength="69" x="605" y="1056.3389">Data/Hora</text><path d="M545,910.75 L555,910.75 C570,910.75 570,1051.4922 585,1051.4922 L595,1051.4922 " fill="none" style="stroke:#181818;stroke-width:1.0;"/><path d="M302,741.8594 L312,741.8594 C327,741.8594 327,910.75 342,910.75 L352,910.75 " fill="none" style="stroke:#181818;stroke-width:1.0;"/><path d="M134,685.5625 L144,685.5625 C159,685.5625 159,741.8594 174,741.8594 L184,741.8594 " fill="none" style="stroke:#181818;stroke-width:1.0;"/><rect fill="#F1F1F1" height="36.2969" rx="12.5" ry="12.5" style="stroke:#181818;stroke-width:1.5;" width="107" x="184" y="1202.2344"/><text fill="#000000" font-family="sans-serif" font-size="14" lengthAdjust="spacing" textLength="87" x="194" y="1225.2295">Tasks (Gold)</text><rect fill="#F1F1F1" height="36.2969" rx="12.5" ry="12.5" style="stroke:#181818;stroke-width:1.5;" width="168" x="341" y="1089.6406"/><text fill="#000000" font-family="sans-serif" font-size="14" lengthAdjust="spacing" textLength="148" x="351" y="1112.6357">Tasks (Padroniza&#231;&#227;o)</text><rect fill="#F1F1F1" height="36.2969" rx="12.5" ry="12.5" style="stroke:#181818;stroke-width:1.5;" width="232" x="559" y="1089.6406"/><text fill="#000000" font-family="sans-serif" font-size="14" lengthAdjust="spacing" textLength="212" x="569" y="1112.6357">Aplicar padr&#227;o de capitalization</text><path d="M509,1107.7891 L519,1107.7891 C534,1107.7891 534,1107.7891 549,1107.7891 L559,1107.7891 " fill="none" style="stroke:#181818;stroke-width:1.0;"/><path d="M291,1220.3828 L301,1220.3828 C316,1220.3828 316,1107.7891 331,1107.7891 L341,1107.7891 " fill="none" style="stroke:#181818;stroke-width:1.0;"/><rect fill="#F1F1F1" height="36.2969" rx="12.5" ry="12.5" style="stroke:#181818;stroke-width:1.5;" width="256" x="341" y="1145.9375"/><text fill="#000000" font-family="sans-serif" font-size="14" lengthAdjust="spacing" textLength="236" x="351" y="1168.9326">Tasks (Surrogate Key/Primary Key)</text><rect fill="#F1F1F1" height="36.2969" rx="12.5" ry="12.5" style="stroke:#181818;stroke-width:1.5;" width="185" x="647" y="1145.9375"/><text fill="#000000" font-family="sans-serif" font-size="14" lengthAdjust="spacing" textLength="165" x="657" y="1168.9326">Unifica&#231;&#227;o de entidades</text><path d="M597,1164.0859 L607,1164.0859 C622,1164.0859 622,1164.0859 637,1164.0859 L647,1164.0859 " fill="none" style="stroke:#181818;stroke-width:1.0;"/><path d="M291,1220.3828 L301,1220.3828 C316,1220.3828 316,1164.0859 331,1164.0859 L341,1164.0859 " fill="none" style="stroke:#181818;stroke-width:1.0;"/><rect fill="#F1F1F1" height="36.2969" rx="12.5" ry="12.5" style="stroke:#181818;stroke-width:1.5;" width="118" x="341" y="1230.3828"/><text fill="#000000" font-family="sans-serif" font-size="14" lengthAdjust="spacing" textLength="98" x="351" y="1253.3779">Tasks (Enrich)</text><rect fill="#F1F1F1" height="36.2969" rx="12.5" ry="12.5" style="stroke:#181818;stroke-width:1.5;" width="75" x="509" y="1202.2344"/><text fill="#000000" font-family="sans-serif" font-size="14" lengthAdjust="spacing" textLength="55" x="519" y="1225.2295">Look up</text><path d="M459,1248.5313 L469,1248.5313 C484,1248.5313 484,1220.3828 499,1220.3828 L509,1220.3828 " fill="none" style="stroke:#181818;stroke-width:1.0;"/><rect fill="#F1F1F1" height="36.2969" rx="12.5" ry="12.5" style="stroke:#181818;stroke-width:1.5;" width="124" x="509" y="1258.5313"/><text fill="#000000" font-family="sans-serif" font-size="14" lengthAdjust="spacing" textLength="104" x="519" y="1281.5264">Decomposi&#231;&#227;o</text><path d="M459,1248.5313 L469,1248.5313 C484,1248.5313 484,1276.6797 499,1276.6797 L509,1276.6797 " fill="none" style="stroke:#181818;stroke-width:1.0;"/><path d="M291,1220.3828 L301,1220.3828 C316,1220.3828 316,1248.5313 331,1248.5313 L341,1248.5313 " fill="none" style="stroke:#181818;stroke-width:1.0;"/><rect fill="#F1F1F1" height="36.2969" rx="12.5" ry="12.5" style="stroke:#181818;stroke-width:1.5;" width="246" x="341" y="1314.8281"/><text fill="#000000" font-family="sans-serif" font-size="14" lengthAdjust="spacing" textLength="226" x="351" y="1337.8232">Tasks (Agregations/Agrega&#231;&#245;es)</text><rect fill="#F1F1F1" height="36.2969" rx="12.5" ry="12.5" style="stroke:#181818;stroke-width:1.5;" width="83" x="637" y="1314.8281"/><text fill="#000000" font-family="sans-serif" font-size="14" lengthAdjust="spacing" textLength="63" x="647" y="1337.8232">Group by</text><path d="M587,1332.9766 L597,1332.9766 C612,1332.9766 612,1332.9766 627,1332.9766 L637,1332.9766 " fill="none" style="stroke:#181818;stroke-width:1.0;"/><path d="M291,1220.3828 L301,1220.3828 C316,1220.3828 316,1332.9766 331,1332.9766 L341,1332.9766 " fill="none" style="stroke:#181818;stroke-width:1.0;"/><path d="M134,685.5625 L144,685.5625 C159,685.5625 159,1220.3828 174,1220.3828 L184,1220.3828 " fill="none" style="stroke:#181818;stroke-width:1.0;"/><!--SRC=[RLF9Rjj03BthAtYq3QHEqYGeVChYB4YjrB2L5EYDrj3E8D9GvSouTNwdXvvwx1VanqejDcAWW00DjyT7pfjp7r12QPqfiKe6a0awlsGfCLXsoM00K-55GILwDGPmnm4C1boWfyPn8_GzaiijrkO0PfIp65XiG9fJw_sg3VY7TQlMl8ZX-U2X_NrhNMEx9l7Me27GxucqGBgGzlCS9QUMGyg62gwpo0L1W-0GQaA03ektFy7ccDJKC_Gl7depGhFfDwMTvqfi5VeTEWqRarU2otQANLf1kWrbFPpOig9Nx4g-n51OwjXTkvoTsOqs9XEhGXcy_NxxnTi137juY0Nxz_3PfggnCrlXYieE-mfzKAysPrTlH47sgATODLLZWYdAbj6jOAmHIMaAXhWBpEadGtjCcKntIOzkj-YIZFsFUqb6WVPc23YyOzdRx2qNPe_T58smiwzjPSVXejc7GAL1zTRmELOsOA69ZSpUGyoZ2Aym47ocpN0gjaJPrEV-ZkHokzvE0mrhluToxSJcprt9XFa5OhMze9pBYhrjXtjVTB4IMZMC_B0zQyvVyhibSwnKsScvYdFxP99fWIuyfXDezCiEZZuS7nwVVFZOovuZtD02ZaxXw6nqSZWwF8NBMGPrk9_qRgUJzJ6qmWPZVH2xY7NpVdAFQuHPrCbA6a5jzRAq3_FhhLDLjxQwwLAdJ-wVqZQfVftpYaEJV7PoS6c32a2K63oboPYM68lG2BRMwmWUivk3Jya4tIgg0aUwokIAjO5iD3R_1m00]--></g></svg>